<svg width="660.074" height="660.018" fill="none" xmlns="http://www.w3.org/2000/svg"><defs><linearGradient x1="516.341" y1="516.313" x2="912.944" y2="-252.898" id="a" gradientUnits="userSpaceOnUse"><stop stop-color="#5141E2"/><stop offset="1" stop-color="#DE39FF"/></linearGradient></defs><path d="M224.83 621.44c-51.44 51.43-134.82 51.43-186.25 0-51.45-51.43-51.45-134.84 0-186.27L435.24 38.56c51.43-51.42 134.81-51.42 186.25 0 51.44 51.44 51.44 134.84 0 186.28l-396.66 396.6Z" fill="url(#a)" fill-rule="evenodd"/><path d="M435.24 38.56c51.43-51.43 134.82-51.43 186.25 0 51.44 51.45 51.44 134.84 0 186.28l-396.66 396.6c-51.43 51.43-134.82 51.43-186.25 0-51.44-51.44-51.44-134.83 0-186.27L435.24 38.56Z"/></svg>